<?xml version="1.0" encoding="UTF-8" standalone="no"?><!DOCTYPE svg PUBLIC "-//W3C//DTD SVG 1.1//EN" "http://www.w3.org/Graphics/SVG/1.1/DTD/svg11.dtd"><svg width="100%" height="100%" viewBox="0 0 512 512" version="1.1" xmlns="http://www.w3.org/2000/svg" xmlns:xlink="http://www.w3.org/1999/xlink" xml:space="preserve" xmlns:serif="http://www.serif.com/" style="fill-rule:evenodd;clip-rule:evenodd;stroke-linejoin:round;stroke-miterlimit:1.41421;"><ellipse id="bg" cx="253.087" cy="253.735" rx="243.378" ry="245.967" style="fill:#f65e5e;"/><g id="fsm"><path d="M6.596,111.228l0,-27.928l68.184,0l-12.39,-27.929l69.872,41.893l-69.872,41.893l12.39,-27.929l-68.184,0Z" style="fill:#2e2e31;"/><path d="M507.947,233.418l-0.193,27.928l-68.349,-0.471l12.198,28.013l-69.582,-42.373l70.159,-41.41l-12.583,27.842l68.35,0.471Z" style="fill:#2e2e31;"/><path d="M12.26,415.45l0,-27.928l68.184,0l-12.391,-27.929l69.872,41.893l-69.872,41.893l12.391,-27.929l-68.184,0Z" style="fill:#2e2e31;"/><g><rect x="132.822" y="51.909" width="245.765" height="96.081" style="fill:#2e2e31;"/><rect x="152.039" y="67.08" width="207.32" height="65.889" style="fill:#ebebeb;"/></g><g><rect x="136.868" y="199.57" width="245.765" height="96.081" style="fill:#2e2e31;"/><rect x="156.084" y="214.741" width="207.32" height="65.889" style="fill:#ebebeb;"/></g><g><rect x="136.868" y="354.311" width="245.765" height="96.081" style="fill:#2e2e31;"/><rect x="156.084" y="369.482" width="207.32" height="65.889" style="fill:#ebebeb;"/></g><rect x="12.024" y="242.043" width="25.187" height="162.39" style="fill:#2e2e31;"/><path d="M508.108,95.596l-25.187,0l0.031,165.482l25.187,0l-0.031,-165.482Z" style="fill:#2e2e31;"/><rect x="11.692" y="229.45" width="140.517" height="22.867" style="fill:#2e2e31;"/><rect x="367.079" y="87.048" width="141.06" height="22.867" style="fill:#2e2e31;"/><text x="230.671px" y="123.283px" style="font-family:'ArialMT', 'Arial', sans-serif;font-size:69.295px;">F</text><text x="233.584px" y="271.605px" style="font-family:'ArialMT', 'Arial', sans-serif;font-size:69.295px;">S</text><text x="233.584px" y="428.57px" style="font-family:'ArialMT', 'Arial', sans-serif;font-size:69.295px;">M</text></g></svg>